<?xml version="1.0" standalone="no"?>
<!DOCTYPE svg PUBLIC "-//W3C//DTD SVG 20010904//EN"
 "http://www.w3.org/TR/2001/REC-SVG-20010904/DTD/svg10.dtd">
<svg version="1.0" xmlns="http://www.w3.org/2000/svg"
 width="700.000000pt" height="700.000000pt" viewBox="0 0 700.000000 700.000000"
 preserveAspectRatio="xMidYMid meet">
<metadata>
Created by potrace 1.11, written by Peter Selinger 2001-2013
</metadata>
<g transform="translate(0.000000,700.000000) scale(0.100000,-0.100000)"
fill="#000000" stroke="none">
<path d="M3350 6929 c-97 -14 -114 -17 -200 -39 -389 -98 -743 -373 -945 -732
-76 -136 -155 -330 -180 -446 -6 -30 -9 -32 -38 -27 -18 4 -45 9 -62 11 -57
10 -410 12 -465 3 -30 -5 -73 -11 -95 -15 -127 -19 -291 -72 -425 -138 -85
-43 -213 -121 -240 -147 -8 -8 -25 -22 -38 -31 -54 -37 -192 -178 -247 -253
-17 -22 -32 -42 -35 -45 -39 -39 -184 -308 -223 -415 -27 -72 -62 -198 -72
-250 -2 -16 -7 -41 -10 -55 -29 -141 -24 -388 10 -553 72 -348 268 -671 560
-922 39 -34 81 -68 94 -77 18 -12 21 -21 14 -30 -28 -36 -132 -312 -147 -388
-8 -40 -15 -70 -20 -88 -3 -9 -8 -42 -11 -72 -3 -30 -8 -73 -11 -95 -17 -122
-2 -354 32 -505 71 -307 243 -607 468 -818 115 -107 357 -256 526 -322 146
-57 322 -104 445 -117 171 -18 414 -5 550 28 22 6 56 14 75 18 36 8 141 43
195 64 57 22 250 124 296 155 26 18 51 32 56 32 5 0 17 -15 27 -32 11 -18 56
-68 100 -112 280 -274 643 -449 1021 -494 91 -11 320 -7 405 7 41 7 84 14 95
16 185 29 490 160 634 273 80 62 261 236 261 251 0 3 10 17 23 31 109 118 245
398 296 610 43 181 65 439 47 570 -3 19 -8 62 -12 95 -4 33 -8 62 -9 65 -1 3
-5 25 -9 50 -10 56 -67 247 -94 317 l-20 51 67 33 c124 61 322 210 426 321
193 206 336 457 403 708 48 180 63 296 63 490 0 139 -4 179 -27 325 -54 330
-283 696 -574 914 -78 59 -156 111 -165 111 -3 0 -22 10 -43 23 -60 38 -221
103 -336 137 -149 43 -324 67 -482 66 l-132 -1 -21 103 c-71 339 -234 633
-481 867 -97 92 -128 118 -220 179 -202 136 -428 229 -679 280 -122 25 -304
32 -421 15z"/>
</g>
</svg>
