<?xml version="1.0" standalone="no"?>
<!DOCTYPE svg PUBLIC "-//W3C//DTD SVG 20010904//EN"
 "http://www.w3.org/TR/2001/REC-SVG-20010904/DTD/svg10.dtd">
<svg version="1.0" xmlns="http://www.w3.org/2000/svg"
 width="640.000000pt" height="640.000000pt" viewBox="0 0 640.000000 640.000000"
 preserveAspectRatio="xMidYMid meet">
<metadata>
Created by potrace 1.11, written by Peter Selinger 2001-2013
</metadata>
<g transform="translate(0.000000,640.000000) scale(0.100000,-0.100000)"
fill="#000000" stroke="none">
<path d="M2183 5666 c-132 -13 -154 -25 -198 -111 -29 -57 -30 -61 -25 -174 9
-212 4 -1051 -8 -1401 -7 -190 -15 -430 -17 -535 -11 -397 -16 -534 -26 -650
-13 -152 -18 -300 -23 -805 -3 -339 -6 -417 -21 -479 -40 -172 19 -335 155
-429 25 -18 56 -41 70 -52 35 -28 187 -50 347 -50 97 0 135 4 145 13 7 8 48
52 90 99 43 47 92 95 110 108 19 12 45 39 60 59 15 21 65 66 112 102 47 35 90
73 96 84 6 11 31 33 56 49 24 15 61 48 82 73 20 25 62 73 92 106 31 34 66 80
80 102 13 22 40 60 60 85 20 25 47 63 60 85 13 22 35 54 50 70 15 17 39 48 53
71 14 22 40 56 57 75 17 19 47 57 65 86 19 29 43 61 53 71 10 10 34 41 53 68
18 27 48 65 67 84 19 19 46 55 60 80 14 25 40 61 57 80 18 19 42 53 55 75 13
22 43 61 67 87 24 26 43 51 43 55 0 4 23 33 51 63 28 30 62 78 76 105 14 28
36 64 48 80 43 58 182 351 223 470 43 127 62 216 62 302 0 57 -24 182 -41 216
-30 58 -83 108 -147 139 -67 33 -67 33 -201 30 -94 -2 -151 -8 -190 -21 -98
-31 -252 -61 -421 -81 -52 -6 -124 -18 -160 -26 -36 -7 -85 -17 -110 -20 -25
-4 -65 -16 -90 -26 -100 -44 -188 -71 -250 -79 -239 -29 -312 -41 -368 -59
-80 -25 -89 -25 -95 3 -3 12 -13 225 -21 472 -17 492 -51 1048 -67 1108 -12
46 -81 125 -126 143 -18 8 -34 13 -35 13 -2 -1 -53 -7 -115 -13z m1551 -2148
c-22 -44 -97 -138 -161 -203 -28 -29 -61 -71 -71 -92 -11 -21 -30 -47 -42 -58
-13 -11 -42 -49 -65 -85 -24 -36 -53 -74 -65 -85 -12 -11 -38 -42 -56 -70 -19
-27 -63 -86 -99 -130 -36 -44 -85 -107 -110 -140 -24 -33 -63 -83 -86 -111
-22 -28 -52 -71 -66 -95 -13 -24 -37 -57 -53 -74 -15 -16 -40 -50 -55 -75 -49
-80 -196 -240 -221 -240 -7 0 -10 123 -10 413 1 226 -3 522 -7 657 -11 324
-12 389 -5 396 4 3 155 1 338 -5 323 -11 533 -5 630 19 19 4 77 8 128 9 l93 1
-17 -32z"/>
<path d="M4183 2438 c-44 -49 -46 -58 -58 -343 -10 -226 -20 -295 -68 -480
-31 -117 -32 -125 -31 -326 1 -194 2 -208 23 -242 l22 -36 132 6 c165 6 198
15 251 63 40 37 43 44 56 124 9 57 11 114 5 178 -4 51 -7 100 -7 108 -1 67
-19 264 -32 345 -8 55 -20 188 -27 295 l-12 195 -51 47 c-55 51 -121 88 -159
88 -13 0 -33 -10 -44 -22z"/>
</g>
</svg>
